<svg width="150" height="150" viewBox="0 0 150 150" fill="none" xmlns="http://www.w3.org/2000/svg">
<path fill-rule="evenodd" clip-rule="evenodd" d="M83.4968 78.0087C83.6451 78.0029 83.7943 78 83.9441 78C88.9028 78 93.117 81.1879 94.6491 85.626L113.944 85.626C120.197 85.626 125.266 80.557 125.266 74.304C125.266 68.2304 120.484 63.2738 114.479 62.9944C113.329 52.8677 104.732 45 94.297 45C85.3749 45 77.7963 50.7522 75.0675 58.7505C73.9762 58.4695 72.8321 58.32 71.653 58.32C69.224 58.32 66.9431 58.9543 64.967 60.0664C74.6487 60.8466 82.4136 68.4156 83.4968 78.0087Z" fill="#48484A"/>
<circle cx="37.653" cy="91.973" r="13.653" fill="#F2F2F2"/>
<circle cx="79.944" cy="94.304" r="11.322" fill="#F2F2F2"/>
<circle cx="60.297" cy="85.313" r="20.313" fill="#F2F2F2"/>
<rect x="37.32" y="93.638" width="42.624" height="11.988" fill="#F2F2F2"/>
</svg>
