<svg width="150" height="150" viewBox="0 0 150 150" fill="none" xmlns="http://www.w3.org/2000/svg">
<path fill-rule="evenodd" clip-rule="evenodd" d="M83.4968 65.0087C83.6451 65.0029 83.7943 65 83.9441 65C88.9028 65 93.117 68.1879 94.6491 72.626L113.944 72.626C120.197 72.626 125.266 67.557 125.266 61.304C125.266 55.2304 120.484 50.2738 114.479 49.9944C113.329 39.8677 104.732 32 94.297 32C85.3749 32 77.7963 37.7522 75.0675 45.7505C73.9762 45.4695 72.8321 45.32 71.653 45.32C69.224 45.32 66.9431 45.9543 64.967 47.0664C74.6487 47.8466 82.4136 55.4156 83.4968 65.0087Z" fill="#48484A"/>
<circle cx="37.653" cy="78.9729" r="13.653" fill="#F2F2F2"/>
<circle cx="79.944" cy="81.3041" r="11.322" fill="#F2F2F2"/>
<circle cx="60.297" cy="72.313" r="20.313" fill="#F2F2F2"/>
<rect x="37.32" y="80.6379" width="42.624" height="11.988" fill="#F2F2F2"/>
<path d="M65 87H57L49 102.5H57L49 118L67 96.5H60L65 87Z" fill="#DD7455"/>
</svg>
