<svg width="150" height="150" viewBox="0 0 150 150" fill="none" xmlns="http://www.w3.org/2000/svg">
<circle cx="94.3225" cy="55.8917" r="23.6775" fill="#DD7455"/>
<circle cx="48.893" cy="72.9508" r="16.8336" fill="#F2F2F2"/>
<circle cx="101.036" cy="75.8248" r="13.9596" fill="#F2F2F2"/>
<circle cx="76.8121" cy="64.7393" r="25.0451" fill="#F2F2F2"/>
<rect x="48.4824" y="75.0037" width="52.5537" height="14.7807" fill="#F2F2F2"/>
<path fill-rule="evenodd" clip-rule="evenodd" d="M50.1304 108.13C50.1304 108.611 50.5197 109 51 109C51.4802 109 51.8696 108.611 51.8696 108.13V106.099L53.3058 107.536C53.6454 107.875 54.1959 107.875 54.5355 107.536C54.8751 107.196 54.8751 106.645 54.5355 106.306L53.0993 104.87H55.1304C55.6107 104.87 56 104.48 56 104C56 103.52 55.6107 103.13 55.1304 103.13H53.0994L54.5355 101.694C54.8751 101.355 54.8751 100.804 54.5355 100.465C54.196 100.125 53.6454 100.125 53.3058 100.465L51.8696 101.901V99.8696C51.8696 99.3893 51.4802 99 51 99C50.5197 99 50.1304 99.3893 50.1304 99.8696V101.901L48.6942 100.464C48.3546 100.125 47.8041 100.125 47.4645 100.464C47.1249 100.804 47.1249 101.355 47.4645 101.694L48.9006 103.13H46.8696C46.3893 103.13 46 103.52 46 104C46 104.48 46.3893 104.87 46.8696 104.87H48.9007L47.4645 106.306C47.1249 106.645 47.1249 107.196 47.4645 107.536C47.8041 107.875 48.3546 107.875 48.6942 107.536L50.1304 106.099V108.13Z" fill="#48484A"/>
<path fill-rule="evenodd" clip-rule="evenodd" d="M67.1304 108.13C67.1304 108.611 67.5197 109 68 109C68.4802 109 68.8696 108.611 68.8696 108.13V106.099L70.3058 107.536C70.6454 107.875 71.1959 107.875 71.5355 107.536C71.8751 107.196 71.8751 106.645 71.5355 106.306L70.0993 104.87H72.1304C72.6107 104.87 73 104.48 73 104C73 103.52 72.6107 103.13 72.1304 103.13H70.0994L71.5355 101.694C71.8751 101.355 71.8751 100.804 71.5355 100.465C71.196 100.125 70.6454 100.125 70.3058 100.465L68.8696 101.901V99.8696C68.8696 99.3893 68.4802 99 68 99C67.5197 99 67.1304 99.3893 67.1304 99.8696V101.901L65.6942 100.464C65.3546 100.125 64.8041 100.125 64.4645 100.464C64.1249 100.804 64.1249 101.355 64.4645 101.694L65.9006 103.13H63.8696C63.3893 103.13 63 103.52 63 104C63 104.48 63.3893 104.87 63.8696 104.87H65.9007L64.4645 106.306C64.1249 106.645 64.1249 107.196 64.4645 107.536C64.8041 107.875 65.3546 107.875 65.6942 107.536L67.1304 106.099V108.13Z" fill="#48484A"/>
<path fill-rule="evenodd" clip-rule="evenodd" d="M84.1304 108.13C84.1304 108.611 84.5197 109 85 109C85.4802 109 85.8696 108.611 85.8696 108.13V106.099L87.3058 107.536C87.6454 107.875 88.1959 107.875 88.5355 107.536C88.8751 107.196 88.8751 106.645 88.5355 106.306L87.0993 104.87H89.1304C89.6107 104.87 90 104.48 90 104C90 103.52 89.6107 103.13 89.1304 103.13H87.0994L88.5355 101.694C88.8751 101.355 88.8751 100.804 88.5355 100.465C88.196 100.125 87.6454 100.125 87.3058 100.465L85.8696 101.901V99.8696C85.8696 99.3893 85.4802 99 85 99C84.5197 99 84.1304 99.3893 84.1304 99.8696V101.901L82.6942 100.464C82.3546 100.125 81.8041 100.125 81.4645 100.464C81.1249 100.804 81.1249 101.355 81.4645 101.694L82.9006 103.13H80.8696C80.3893 103.13 80 103.52 80 104C80 104.48 80.3893 104.87 80.8696 104.87H82.9007L81.4645 106.306C81.1249 106.645 81.1249 107.196 81.4645 107.536C81.8041 107.875 82.3546 107.875 82.6942 107.536L84.1304 106.099V108.13Z" fill="#48484A"/>
<path fill-rule="evenodd" clip-rule="evenodd" d="M101.13 108.13C101.13 108.611 101.52 109 102 109C102.48 109 102.87 108.611 102.87 108.13V106.099L104.306 107.536C104.645 107.875 105.196 107.875 105.536 107.536C105.875 107.196 105.875 106.645 105.536 106.306L104.099 104.87H106.13C106.611 104.87 107 104.48 107 104C107 103.52 106.611 103.13 106.13 103.13H104.099L105.536 101.694C105.875 101.355 105.875 100.804 105.536 100.465C105.196 100.125 104.645 100.125 104.306 100.465L102.87 101.901V99.8696C102.87 99.3893 102.48 99 102 99C101.52 99 101.13 99.3893 101.13 99.8696V101.901L99.6942 100.464C99.3546 100.125 98.8041 100.125 98.4645 100.464C98.1249 100.804 98.1249 101.355 98.4645 101.694L99.9006 103.13H97.8696C97.3893 103.13 97 103.52 97 104C97 104.48 97.3893 104.87 97.8696 104.87H99.9007L98.4645 106.306C98.1249 106.645 98.1249 107.196 98.4645 107.536C98.8041 107.875 99.3546 107.875 99.6942 107.536L101.13 106.099V108.13Z" fill="#48484A"/>
<path fill-rule="evenodd" clip-rule="evenodd" d="M62.1304 120.13C62.1304 120.611 62.5197 121 63 121C63.4802 121 63.8696 120.611 63.8696 120.13V118.099L65.3058 119.536C65.6454 119.875 66.1959 119.875 66.5355 119.536C66.8751 119.196 66.8751 118.645 66.5355 118.306L65.0993 116.87H67.1304C67.6107 116.87 68 116.48 68 116C68 115.52 67.6107 115.13 67.1304 115.13H65.0994L66.5355 113.694C66.8751 113.355 66.8751 112.804 66.5355 112.465C66.196 112.125 65.6454 112.125 65.3058 112.465L63.8696 113.901V111.87C63.8696 111.389 63.4802 111 63 111C62.5197 111 62.1304 111.389 62.1304 111.87V113.901L60.6942 112.464C60.3546 112.125 59.8041 112.125 59.4645 112.464C59.1249 112.804 59.1249 113.355 59.4645 113.694L60.9006 115.13H58.8696C58.3893 115.13 58 115.52 58 116C58 116.48 58.3893 116.87 58.8696 116.87H60.9007L59.4645 118.306C59.1249 118.645 59.1249 119.196 59.4645 119.536C59.8041 119.875 60.3546 119.875 60.6942 119.536L62.1304 118.099V120.13Z" fill="#48484A"/>
<path fill-rule="evenodd" clip-rule="evenodd" d="M79.1304 120.13C79.1304 120.611 79.5197 121 80 121C80.4802 121 80.8696 120.611 80.8696 120.13V118.099L82.3058 119.536C82.6454 119.875 83.1959 119.875 83.5355 119.536C83.8751 119.196 83.8751 118.645 83.5355 118.306L82.0993 116.87H84.1304C84.6107 116.87 85 116.48 85 116C85 115.52 84.6107 115.13 84.1304 115.13H82.0994L83.5355 113.694C83.8751 113.355 83.8751 112.804 83.5355 112.465C83.196 112.125 82.6454 112.125 82.3058 112.465L80.8696 113.901V111.87C80.8696 111.389 80.4802 111 80 111C79.5197 111 79.1304 111.389 79.1304 111.87V113.901L77.6942 112.464C77.3546 112.125 76.8041 112.125 76.4645 112.464C76.1249 112.804 76.1249 113.355 76.4645 113.694L77.9006 115.13H75.8696C75.3893 115.13 75 115.52 75 116C75 116.48 75.3893 116.87 75.8696 116.87H77.9007L76.4645 118.306C76.1249 118.645 76.1249 119.196 76.4645 119.536C76.8041 119.875 77.3546 119.875 77.6942 119.536L79.1304 118.099V120.13Z" fill="#48484A"/>
<path fill-rule="evenodd" clip-rule="evenodd" d="M96.1304 120.13C96.1304 120.611 96.5197 121 97 121C97.4802 121 97.8696 120.611 97.8696 120.13V118.099L99.3058 119.536C99.6454 119.875 100.196 119.875 100.536 119.536C100.875 119.196 100.875 118.645 100.536 118.306L99.0993 116.87H101.13C101.611 116.87 102 116.48 102 116C102 115.52 101.611 115.13 101.13 115.13H99.0994L100.536 113.694C100.875 113.355 100.875 112.804 100.536 112.465C100.196 112.125 99.6454 112.125 99.3058 112.465L97.8696 113.901V111.87C97.8696 111.389 97.4802 111 97 111C96.5197 111 96.1304 111.389 96.1304 111.87V113.901L94.6942 112.464C94.3546 112.125 93.8041 112.125 93.4645 112.464C93.1249 112.804 93.1249 113.355 93.4645 113.694L94.9006 115.13H92.8696C92.3893 115.13 92 115.52 92 116C92 116.48 92.3893 116.87 92.8696 116.87H94.9007L93.4645 118.306C93.1249 118.645 93.1249 119.196 93.4645 119.536C93.8041 119.875 94.3546 119.875 94.6942 119.536L96.1304 118.099V120.13Z" fill="#48484A"/>
</svg>
