<svg width="48" height="48" viewBox="0 0 48 48" fill="none" xmlns="http://www.w3.org/2000/svg">
<path d="M12.0001 20.9846C11.9968 21.1873 12.0552 21.3863 12.1675 21.555C12.2799 21.7238 12.4409 21.8544 12.6291 21.9296L22.2301 25.7706L26.0711 35.3726C26.1453 35.5583 26.2735 35.7176 26.4391 35.8297C26.6047 35.9418 26.8001 36.0017 27.0001 36.0016H27.0161C27.2187 35.9984 27.4155 35.9338 27.5805 35.8163C27.7455 35.6988 27.8709 35.534 27.9401 35.3436L35.9401 13.3436C36.0056 13.1647 36.0186 12.9707 35.9775 12.7846C35.9365 12.5985 35.8431 12.428 35.7084 12.2932C35.5737 12.1584 35.4033 12.0648 35.2172 12.0236C35.0311 11.9824 34.8372 11.9953 34.6581 12.0606L12.6581 20.0606C12.4677 20.1301 12.3028 20.2557 12.1853 20.4208C12.0678 20.586 12.0033 20.783 12.0001 20.9856V20.9846Z" fill="#343434"/>
</svg>
